<mxfile host="Electron" modified="2022-12-20T14:15:16.708Z" agent="5.0 (X11; Linux x86_64) AppleWebKit/537.36 (KHTML, like Gecko) draw.io/20.6.2 Chrome/106.0.5249.199 Electron/21.3.3 Safari/537.36" etag="qeo_PjUg5EgDazAIHke4" compressed="false" version="20.6.2" type="device">
  <diagram id="_Dd61Jrc0WL2eY-ciOkp" name="Page-1">
    <mxGraphModel dx="1822" dy="1226" grid="1" gridSize="10" guides="1" tooltips="1" connect="1" arrows="1" fold="1" page="0" pageScale="1" pageWidth="850" pageHeight="1100" background="none" math="0" shadow="0">
      <root>
        <mxCell id="0" />
        <mxCell id="1" parent="0" />
        <mxCell id="node1" value="&lt;p style=&quot;margin:0px;margin-top:4px;text-align:center;&quot;&gt;&lt;b&gt;APP_USER&lt;/b&gt;&lt;/p&gt;&lt;hr size=&quot;1&quot;&gt;&lt;p style=&quot;margin:0 0 0 4px;line-height:1.6;&quot;&gt; USERNAME: varchar_ignorecase(50)&lt;/p&gt;" style="verticalAlign=top;align=left;overflow=fill;fontSize=14;fontFamily=Noto Sans;html=1;rounded=0;shadow=0;comic=0;labelBackgroundColor=none;strokeWidth=1;strokeColor=default;fillColor=none;" parent="1" vertex="1">
          <mxGeometry x="458" y="30" width="269" height="67" as="geometry" />
        </mxCell>
        <mxCell id="node3" value="&lt;p style=&quot;margin:0px;margin-top:4px;text-align:center;&quot;&gt;&lt;b&gt;CARD&lt;/b&gt;&lt;/p&gt;&lt;hr size=&quot;1&quot;&gt;&lt;p style=&quot;margin:0 0 0 4px;line-height:1.6;&quot;&gt; CARD_SET_ID: uuid&lt;br&gt; CARD_NAME: varchar_ignorecase(50)&lt;br&gt; CARD_VALUE: double precision&lt;/p&gt;&lt;hr size=&quot;1&quot;&gt;&lt;p style=&quot;margin:0 0 0 4px;line-height:1.6;&quot;&gt; ID: uuid&lt;/p&gt;" style="verticalAlign=top;align=left;overflow=fill;fontSize=14;fontFamily=Noto Sans;html=1;rounded=0;shadow=0;comic=0;labelBackgroundColor=none;strokeWidth=1;fillColor=none;" parent="1" vertex="1">
          <mxGeometry x="-142" y="-10" width="277" height="141" as="geometry" />
        </mxCell>
        <mxCell id="node0" value="&lt;p style=&quot;margin:0px;margin-top:4px;text-align:center;&quot;&gt;&lt;b&gt;CARD_SET&lt;/b&gt;&lt;/p&gt;&lt;hr size=&quot;1&quot;&gt;&lt;p style=&quot;margin:0 0 0 4px;line-height:1.6;&quot;&gt; SET_NAME: varchar_ignorecase(50)&lt;/p&gt;&lt;hr size=&quot;1&quot;&gt;&lt;p style=&quot;margin:0 0 0 4px;line-height:1.6;&quot;&gt; ID: uuid&lt;/p&gt;" style="verticalAlign=top;align=left;overflow=fill;fontSize=14;fontFamily=Noto Sans;html=1;rounded=0;shadow=0;comic=0;labelBackgroundColor=none;strokeWidth=1;fillColor=none;" parent="1" vertex="1">
          <mxGeometry x="3" y="-175" width="263" height="96" as="geometry" />
        </mxCell>
        <mxCell id="node5" value="&lt;p style=&quot;margin:0px;margin-top:4px;text-align:center;&quot;&gt;&lt;b&gt;ROOM&lt;/b&gt;&lt;/p&gt;&lt;hr size=&quot;1&quot;&gt;&lt;p style=&quot;margin:0 0 0 4px;line-height:1.6;&quot;&gt; CARD_SET_ID: uuid&lt;br&gt; ROOM_NAME: varchar_ignorecase(50)&lt;br&gt; TOPIC: character varying&lt;/p&gt;&lt;hr size=&quot;1&quot;&gt;&lt;p style=&quot;margin:0 0 0 4px;line-height:1.6;&quot;&gt; ID: uuid&lt;/p&gt;" style="verticalAlign=top;align=left;overflow=fill;fontSize=14;fontFamily=Noto Sans;html=1;rounded=0;shadow=0;comic=0;labelBackgroundColor=none;strokeWidth=1;fillColor=none;" parent="1" vertex="1">
          <mxGeometry x="155" y="-10" width="283" height="141" as="geometry" />
        </mxCell>
        <mxCell id="node4" value="&lt;p style=&quot;margin:0px;margin-top:4px;text-align:center;&quot;&gt;&lt;b&gt;ROOM_MEMBER&lt;/b&gt;&lt;/p&gt;&lt;hr size=&quot;1&quot;&gt;&lt;p style=&quot;margin:0 0 0 4px;line-height:1.6;&quot;&gt; USER_ROLE: enum(&#39;voter&#39;, &#39;observer&#39;)&lt;br&gt; ROOM_ID: uuid&lt;br&gt; USERNAME: varchar_ignorecase(50)&lt;/p&gt;&lt;hr size=&quot;1&quot;&gt;&lt;p style=&quot;margin:0 0 0 4px;line-height:1.6;&quot;&gt; ID: uuid&lt;/p&gt;" style="verticalAlign=top;align=left;overflow=fill;fontSize=14;fontFamily=Noto Sans;html=1;rounded=0;shadow=0;comic=0;labelBackgroundColor=none;strokeWidth=1;fillColor=none;" parent="1" vertex="1">
          <mxGeometry x="311" y="177" width="274" height="141" as="geometry" />
        </mxCell>
        <mxCell id="node2" value="&lt;p style=&quot;margin:0px;margin-top:4px;text-align:center;&quot;&gt;&lt;b&gt;VOTE&lt;/b&gt;&lt;/p&gt;&lt;hr size=&quot;1&quot;&gt;&lt;p style=&quot;margin:0 0 0 4px;line-height:1.6;&quot;&gt; ROOM_MEMBER_ID: uuid&lt;br&gt; CARD_ID: uuid&lt;/p&gt;&lt;hr size=&quot;1&quot;&gt;&lt;p style=&quot;margin:0 0 0 4px;line-height:1.6;&quot;&gt; ID: uuid&lt;/p&gt;" style="verticalAlign=top;align=left;overflow=fill;fontSize=14;fontFamily=Noto Sans;html=1;rounded=0;shadow=0;comic=0;labelBackgroundColor=none;strokeWidth=1;fillColor=none;" parent="1" vertex="1">
          <mxGeometry x="161" y="376" width="198" height="124" as="geometry" />
        </mxCell>
        <mxCell id="edge3" value="" style="html=1;rounded=1;edgeStyle=orthogonalEdgeStyle;dashed=0;startArrow=none;endArrow=block;endSize=12;strokeColor=#595959;exitX=0.500;exitY=0.000;exitDx=0;exitDy=0;entryX=0.500;entryY=1.001;entryDx=0;entryDy=0;fontFamily=Noto Sans;" parent="1" source="node3" target="node0" edge="1">
          <mxGeometry width="50" height="50" relative="1" as="geometry">
            <Array as="points">
              <mxPoint x="-3" y="-35" />
              <mxPoint x="134" y="-35" />
            </Array>
          </mxGeometry>
        </mxCell>
        <mxCell id="label20" value="CARD_SET_ID:ID" style="edgeLabel;resizable=0;html=1;align=left;verticalAlign=top;strokeColor=default;fontFamily=Noto Sans;" parent="edge3" vertex="1" connectable="0">
          <mxGeometry x="5" y="-58" as="geometry" />
        </mxCell>
        <mxCell id="edge4" value="" style="html=1;rounded=1;edgeStyle=orthogonalEdgeStyle;dashed=0;startArrow=none;endArrow=block;endSize=12;strokeColor=#595959;exitX=0.500;exitY=0.000;exitDx=0;exitDy=0;entryX=0.500;entryY=1.001;entryDx=0;entryDy=0;fontFamily=Noto Sans;" parent="1" source="node5" target="node0" edge="1">
          <mxGeometry width="50" height="50" relative="1" as="geometry">
            <Array as="points">
              <mxPoint x="297" y="-35" />
              <mxPoint x="134" y="-35" />
            </Array>
          </mxGeometry>
        </mxCell>
        <mxCell id="label26" value="CARD_SET_ID:ID" style="edgeLabel;resizable=0;html=1;align=left;verticalAlign=top;strokeColor=default;fontFamily=Noto Sans;" parent="edge4" vertex="1" connectable="0">
          <mxGeometry x="170" y="-58" as="geometry" />
        </mxCell>
        <mxCell id="edge1" value="" style="html=1;rounded=1;edgeStyle=orthogonalEdgeStyle;dashed=0;startArrow=none;endArrow=block;endSize=12;strokeColor=#595959;exitX=0.750;exitY=0.000;exitDx=0;exitDy=0;entryX=0.500;entryY=1.001;entryDx=0;entryDy=0;fontFamily=Noto Sans;" parent="1" source="node4" target="node1" edge="1">
          <mxGeometry width="50" height="50" relative="1" as="geometry">
            <Array as="points">
              <mxPoint x="517" y="157" />
              <mxPoint x="593" y="157" />
            </Array>
          </mxGeometry>
        </mxCell>
        <mxCell id="label8" value="USERNAME" style="edgeLabel;resizable=0;html=1;align=left;verticalAlign=top;strokeColor=default;fontFamily=Noto Sans;" parent="edge1" vertex="1" connectable="0">
          <mxGeometry x="520" y="137" as="geometry" />
        </mxCell>
        <mxCell id="edge2" value="" style="html=1;rounded=1;edgeStyle=orthogonalEdgeStyle;dashed=0;startArrow=none;endArrow=block;endSize=12;strokeColor=#595959;exitX=0.250;exitY=0.000;exitDx=0;exitDy=0;entryX=0.500;entryY=1.000;entryDx=0;entryDy=0;fontFamily=Noto Sans;" parent="1" source="node4" target="node5" edge="1">
          <mxGeometry width="50" height="50" relative="1" as="geometry">
            <Array as="points">
              <mxPoint x="380" y="157" />
              <mxPoint x="297" y="157" />
            </Array>
          </mxGeometry>
        </mxCell>
        <mxCell id="label14" value="ROOM_ID:ID" style="edgeLabel;resizable=0;html=1;align=left;verticalAlign=top;strokeColor=default;fontFamily=Noto Sans;" parent="edge2" vertex="1" connectable="0">
          <mxGeometry x="307" y="134" as="geometry" />
        </mxCell>
        <mxCell id="edge5" value="" style="html=1;rounded=1;edgeStyle=orthogonalEdgeStyle;dashed=0;startArrow=none;endArrow=block;endSize=12;strokeColor=#595959;exitX=0.250;exitY=0.000;exitDx=0;exitDy=0;entryX=0.500;entryY=1.000;entryDx=0;entryDy=0;fontFamily=Noto Sans;" parent="1" source="node2" target="node3" edge="1">
          <mxGeometry width="50" height="50" relative="1" as="geometry">
            <Array as="points">
              <mxPoint x="211" y="350" />
              <mxPoint x="-3" y="350" />
            </Array>
          </mxGeometry>
        </mxCell>
        <mxCell id="label32" value="CARD_ID:ID" style="edgeLabel;resizable=0;html=1;align=left;verticalAlign=top;strokeColor=default;fontFamily=Noto Sans;" parent="edge5" vertex="1" connectable="0">
          <mxGeometry x="69" y="330" as="geometry" />
        </mxCell>
        <mxCell id="edge0" value="" style="html=1;rounded=1;edgeStyle=orthogonalEdgeStyle;dashed=0;startArrow=none;endArrow=block;endSize=12;strokeColor=#595959;exitX=0.750;exitY=0.000;exitDx=0;exitDy=0;entryX=0.500;entryY=1.000;entryDx=0;entryDy=0;fontFamily=Noto Sans;" parent="1" source="node2" target="node4" edge="1">
          <mxGeometry width="50" height="50" relative="1" as="geometry">
            <Array as="points">
              <mxPoint x="310" y="350" />
              <mxPoint x="448" y="350" />
            </Array>
          </mxGeometry>
        </mxCell>
        <mxCell id="label2" value="ROOM_MEMBER_ID:ID" style="edgeLabel;resizable=0;html=1;align=left;verticalAlign=top;strokeColor=default;fontFamily=Noto Sans;" parent="edge0" vertex="1" connectable="0">
          <mxGeometry x="316" y="327" as="geometry" />
        </mxCell>
      </root>
    </mxGraphModel>
  </diagram>
</mxfile>
